<svg xmlns="http://www.w3.org/2000/svg" xmlns:xlink="http://www.w3.org/1999/xlink"><defs><symbol viewBox="0 0 496.096 496.096" id="CloseIcon"><path d="M259.41 247.998L493.754 13.654a8 8 0 000-11.312 8 8 0 00-11.312 0L248.098 236.686 13.754 2.342A8 8 0 002.442 13.654l234.344 234.344L2.442 482.342a8 8 0 00-.196 11.312 8 8 0 0011.508 0L248.098 259.31l234.344 234.344a8 8 0 0011.312-.196 8 8 0 000-11.116L259.41 247.998z" /></symbol><symbol viewBox="0 0 64 64" id="SwapIcon"><path d="M10 26h39.172l-3.586 3.586a2 2 0 102.828 2.828l7-7a2 2 0 000-2.828l-7-7a2 2 0 10-2.828 2.828L49.172 22H10a2 2 0 000 4zM54 38H14.828l3.586-3.586a2 2 0 10-2.828-2.828l-7 7a2 2 0 000 2.828l7 7c.39.391.902.586 1.414.586s1.024-.195 1.414-.586a2 2 0 000-2.828L14.828 42H54a2 2 0 000-4z" /></symbol></defs></svg>